REM Generated by IcecastMetadataRecorder
REM 2020-07-29T21:16:11.222Z
TITLE "isics-all"
FILE "isics-all.mp3" WAVE
  TRACK 1 AUDIO
    TITLE "2020-07-29T21:17:17.750Z TO:24631 Dallas County Fire/EMS Operations FROM:UNKNOWN"
    INDEX 01 01:06:39
  TRACK 2 AUDIO
    TITLE "2020-07-29T21:17:19.126Z TO:1102 Polk County - Westcom Law Enforcement 2 FROM:1373"
    INDEX 01 01:07:67
  TRACK 3 AUDIO
    TITLE "2020-07-29T21:17:21.238Z TO:24631 Dallas County Fire/EMS Operations FROM:UNKNOWN"
    INDEX 01 01:10:01
  TRACK 4 AUDIO
    TITLE "2020-07-29T21:17:30.326Z TO:1102 Polk County - Westcom Law Enforcement 2 FROM:1006"
    INDEX 01 01:19:08
  TRACK 5 AUDIO
    TITLE "2020-07-29T21:17:34.550Z TO:1102 Polk County - Westcom Law Enforcement 2 FROM:1373"
    INDEX 01 01:23:24
  TRACK 6 AUDIO
    TITLE "2020-07-29T21:17:36.630Z TO:24631 Dallas County Fire/EMS Operations FROM:2520309"
    INDEX 01 01:25:30
  TRACK 7 AUDIO
    TITLE "2020-07-29T21:17:42.934Z TO:24631 Dallas County Fire/EMS Operations FROM:2559982"
    INDEX 01 01:31:53
  TRACK 8 AUDIO
    TITLE "2020-07-29T21:17:44.342Z TO:1102 Polk County - Westcom Law Enforcement 2 FROM:1006"
    INDEX 01 01:33:09
  TRACK 9 AUDIO
    TITLE "2020-07-29T21:17:48.534Z TO:24631 Dallas County Fire/EMS Operations FROM:2520002"
    INDEX 01 01:37:23
  TRACK 10 AUDIO
    TITLE "END"
    INDEX 01 01:40:09